<svg width="205" height="23" viewBox="0 0 205 23" fill="none" xmlns="http://www.w3.org/2000/svg">
<path d="M199.653 6.52246H198.163L198.149 5.64746H199.537C199.729 5.6429 199.906 5.60872 200.07 5.54492C200.239 5.48112 200.373 5.38997 200.474 5.27148C200.578 5.14844 200.631 4.99805 200.631 4.82031C200.631 4.59245 200.592 4.41243 200.515 4.28027C200.437 4.14811 200.307 4.05241 200.125 3.99316C199.947 3.93392 199.703 3.9043 199.394 3.9043H198.464V8.83301H197.5V3.03613H199.394C199.845 3.03613 200.234 3.09993 200.562 3.22754C200.891 3.35514 201.144 3.54883 201.321 3.80859C201.499 4.0638 201.588 4.38737 201.588 4.7793C201.588 5.02539 201.531 5.24642 201.417 5.44238C201.303 5.63835 201.137 5.80697 200.918 5.94824C200.699 6.08952 200.433 6.20345 200.118 6.29004C200.104 6.29004 200.089 6.30599 200.07 6.33789C200.057 6.36523 200.043 6.37891 200.029 6.37891C199.952 6.42448 199.902 6.45866 199.879 6.48145C199.861 6.49967 199.84 6.51107 199.817 6.51562C199.799 6.52018 199.744 6.52246 199.653 6.52246ZM199.585 6.52246L199.722 5.90723C200.428 5.90723 200.909 6.05762 201.164 6.3584C201.424 6.65462 201.554 7.0306 201.554 7.48633V7.85547C201.554 8.02409 201.563 8.18587 201.581 8.34082C201.599 8.49121 201.629 8.61881 201.67 8.72363V8.83301H200.679C200.633 8.71452 200.606 8.5459 200.597 8.32715C200.592 8.1084 200.59 7.94889 200.59 7.84863V7.49316C200.59 7.16048 200.512 6.91667 200.357 6.76172C200.207 6.60221 199.95 6.52246 199.585 6.52246ZM195.408 6.0166C195.408 6.62272 195.513 7.18783 195.723 7.71191C195.932 8.236 196.224 8.69401 196.598 9.08594C196.971 9.47786 197.404 9.7832 197.896 10.002C198.389 10.2207 198.915 10.3301 199.476 10.3301C200.036 10.3301 200.56 10.2207 201.048 10.002C201.54 9.7832 201.971 9.47786 202.34 9.08594C202.714 8.69401 203.005 8.236 203.215 7.71191C203.424 7.18783 203.529 6.62272 203.529 6.0166C203.529 5.40592 203.424 4.84082 203.215 4.32129C203.005 3.80176 202.714 3.34831 202.34 2.96094C201.971 2.56901 201.54 2.26595 201.048 2.05176C200.56 1.83301 200.036 1.72363 199.476 1.72363C198.915 1.72363 198.389 1.83301 197.896 2.05176C197.404 2.26595 196.971 2.56901 196.598 2.96094C196.224 3.34831 195.932 3.80176 195.723 4.32129C195.513 4.84082 195.408 5.40592 195.408 6.0166ZM194.622 6.0166C194.622 5.29199 194.747 4.61979 194.998 4C195.249 3.38021 195.597 2.84017 196.044 2.37988C196.491 1.91504 197.006 1.55501 197.589 1.2998C198.177 1.04004 198.806 0.910156 199.476 0.910156C200.146 0.910156 200.772 1.04004 201.355 1.2998C201.943 1.55501 202.458 1.91504 202.9 2.37988C203.347 2.84017 203.696 3.38021 203.946 4C204.197 4.61979 204.322 5.29199 204.322 6.0166C204.322 6.74121 204.197 7.41341 203.946 8.0332C203.696 8.65299 203.347 9.19759 202.9 9.66699C202.458 10.1318 201.943 10.4941 201.355 10.7539C200.772 11.0137 200.146 11.1436 199.476 11.1436C198.806 11.1436 198.177 11.0137 197.589 10.7539C197.006 10.4941 196.491 10.1318 196.044 9.66699C195.597 9.19759 195.249 8.65299 194.998 8.0332C194.747 7.41341 194.622 6.74121 194.622 6.0166Z" fill="black"/>
<path d="M0.0240479 22.16L7.68005 5.24H10.2L17.856 22.16H14.736L13.056 18.248H4.80005L3.14405 22.16H0.0240479ZM8.90405 8.576L5.85605 15.8H12L8.95205 8.576H8.90405Z" fill="#00B050"/>
<path d="M19.7074 22.16V5.24H30.7714V7.688H22.7794V12.464H30.2674V14.912H22.7794V22.16H19.7074Z" fill="#00B050"/>
<path d="M33.184 22.16V5.24H40.528C42.384 5.24 43.816 5.688 44.824 6.584C45.832 7.464 46.336 8.704 46.336 10.304C46.336 11.568 46.008 12.616 45.352 13.448C44.696 14.264 43.752 14.816 42.52 15.104C43.336 15.36 44.008 15.976 44.536 16.952L47.368 22.16H43.984L41.056 16.76C40.768 16.232 40.424 15.872 40.024 15.68C39.64 15.488 39.144 15.392 38.536 15.392H36.256V22.16H33.184ZM36.256 13.112H40C42.24 13.112 43.36 12.2 43.36 10.376C43.36 8.568 42.24 7.664 40 7.664H36.256V13.112Z" fill="black"/>
<path d="M56.6691 22.4C54.3491 22.4 52.5731 21.8 51.3411 20.6C50.1251 19.384 49.5171 17.592 49.5171 15.224V5.24H52.5891V15.2C52.5891 16.72 52.9331 17.864 53.6211 18.632C54.3251 19.384 55.3411 19.76 56.6691 19.76C59.3731 19.76 60.7251 18.24 60.7251 15.2V5.24H63.7731V15.224C63.7731 17.592 63.1731 19.384 61.9731 20.6C60.7731 21.8 59.0051 22.4 56.6691 22.4Z" fill="black"/>
<path d="M67.3559 22.16V5.24H74.7479C76.5239 5.24 77.8999 5.632 78.8759 6.416C79.8519 7.184 80.3399 8.256 80.3399 9.632C80.3399 10.544 80.1079 11.328 79.6439 11.984C79.1799 12.64 78.5399 13.12 77.7239 13.424C78.6839 13.696 79.4279 14.176 79.9559 14.864C80.4999 15.536 80.7719 16.392 80.7719 17.432C80.7719 18.936 80.2599 20.104 79.2359 20.936C78.2279 21.752 76.8199 22.16 75.0119 22.16H67.3559ZM70.3079 12.416H74.2199C76.3159 12.416 77.3639 11.608 77.3639 9.992C77.3639 8.376 76.3159 7.568 74.2199 7.568H70.3079V12.416ZM70.3079 19.832H74.6279C76.7399 19.832 77.7959 18.984 77.7959 17.288C77.7959 15.592 76.7399 14.744 74.6279 14.744H70.3079V19.832Z" fill="black"/>
<path d="M83.8793 22.16V5.24H91.2713C93.0473 5.24 94.4233 5.632 95.3993 6.416C96.3753 7.184 96.8633 8.256 96.8633 9.632C96.8633 10.544 96.6313 11.328 96.1673 11.984C95.7033 12.64 95.0633 13.12 94.2473 13.424C95.2073 13.696 95.9513 14.176 96.4793 14.864C97.0233 15.536 97.2953 16.392 97.2953 17.432C97.2953 18.936 96.7833 20.104 95.7593 20.936C94.7513 21.752 93.3433 22.16 91.5353 22.16H83.8793ZM86.8313 12.416H90.7433C92.8393 12.416 93.8873 11.608 93.8873 9.992C93.8873 8.376 92.8393 7.568 90.7433 7.568H86.8313V12.416ZM86.8313 19.832H91.1513C93.2633 19.832 94.3193 18.984 94.3193 17.288C94.3193 15.592 93.2633 14.744 91.1513 14.744H86.8313V19.832Z" fill="black"/>
<path d="M100.403 22.16V5.24H111.659V7.688H103.355V12.344H111.131V14.792H103.355V19.712H111.659V22.16H100.403Z" fill="black"/>
<path d="M114.723 22.16V5.24H122.067C123.923 5.24 125.355 5.688 126.363 6.584C127.371 7.464 127.875 8.704 127.875 10.304C127.875 11.568 127.547 12.616 126.891 13.448C126.235 14.264 125.291 14.816 124.059 15.104C124.875 15.36 125.547 15.976 126.075 16.952L128.907 22.16H125.523L122.595 16.76C122.307 16.232 121.963 15.872 121.563 15.68C121.179 15.488 120.683 15.392 120.075 15.392H117.795V22.16H114.723ZM117.795 13.112H121.539C123.779 13.112 124.899 12.2 124.899 10.376C124.899 8.568 123.779 7.664 121.539 7.664H117.795V13.112Z" fill="black"/>
<path d="M134.787 22.16V7.808H128.979V5.24H143.667V7.808H137.859V22.16H134.787Z" fill="#00B050"/>
<path d="M145.614 22.16V5.24H156.87V7.688H148.566V12.344H156.342V14.792H148.566V19.712H156.87V22.16H145.614Z" fill="#00B050"/>
<path d="M167.783 22.4C166.023 22.4 164.511 22.048 163.247 21.344C161.999 20.624 161.039 19.616 160.367 18.32C159.695 17.008 159.359 15.464 159.359 13.688C159.359 11.912 159.695 10.376 160.367 9.08C161.039 7.784 161.999 6.784 163.247 6.08C164.511 5.36 166.023 5 167.783 5C168.919 5 169.991 5.176 170.999 5.528C172.023 5.88 172.863 6.384 173.519 7.04L172.511 9.488C171.791 8.88 171.055 8.44 170.303 8.168C169.551 7.88 168.743 7.736 167.879 7.736C166.167 7.736 164.863 8.256 163.967 9.296C163.071 10.32 162.623 11.784 162.623 13.688C162.623 15.592 163.071 17.064 163.967 18.104C164.863 19.144 166.167 19.664 167.879 19.664C168.743 19.664 169.551 19.528 170.303 19.256C171.055 18.968 171.791 18.52 172.511 17.912L173.519 20.36C172.863 21 172.023 21.504 170.999 21.872C169.991 22.224 168.919 22.4 167.783 22.4Z" fill="#00B050"/>
<path d="M176.2 22.16V5.24H179.272V12.296H187.984V5.24H191.056V22.16H187.984V14.864H179.272V22.16H176.2Z" fill="#00B050"/>
</svg>
